# xmcd
#
# Track frame offsets:
#	150
#	15660
#	28710
#	46800
#	67352
#	86125
#	105067
#	123502
#	145110
#	165255
#	176815
#	191687
#	210757
#	229342
#
# Disc length: 3264 seconds
#
# Revision: 2
# Processed by: cddbd v1.5.2PL0 Copyright (c) Steve Scherf et al.
# Submitted via: audiograbber 1.83.01
#
DISCID=b60cbe0e
DTITLE=Various Artist - Wild Women's Blues (Fab 14)
DYEAR=2005
DGENRE=Blues
TTITLE0=Lady Bianca - Lookin' At My Man
TTITLE1=Angela Strehli - Never Like This Before
TTITLE2=Marcia Ball - American Dream
TTITLE3=Ruth Brown - Good Day For The Blues
TTITLE4=Tracy Nelson - You Never Broke My Heart
TTITLE5=Ann Peebles - Read Me My Rights
TTITLE6=Rory Block - Lovin' Whiskey
TTITLE7=Miki Honeycutt - Come On In This House
TTITLE8=Barbara Lynn - Sweet Sixteen
TTITLE9=Marcia Ball, Irma Thomas, Tracy Nelson - I Want To Do Everything For Yo
TTITLE9=u
TTITLE10=Kim Nalley with The Johnny Nocturne Band - Fine Brown Frame
TTITLE11=Irma Thomas - Blue In The Heart
TTITLE12=Michelle Willson - Life Rolls On
TTITLE13=Candye Kane - For Your Love
EXTD=Label: Fab 14\nBestellnummer: FAB14 50118\nFirma: in-akustik GmbH\ncompila
EXTD=tion/sampler Rounder 
EXTT0=
EXTT1=
EXTT2=
EXTT3=
EXTT4=
EXTT5=
EXTT6=
EXTT7=
EXTT8=
EXTT9=
EXTT10=
EXTT11=
EXTT12=
EXTT13=
PLAYORDER=
